<?xml version="1.0" encoding="iso-8859-1"?>
<!-- Generator: Adobe Illustrator 19.0.0, SVG Export Plug-In . SVG Version: 6.00 Build 0)  -->
<svg version="1.1" id="Layer_1" xmlns="http://www.w3.org/2000/svg" xmlns:xlink="http://www.w3.org/1999/xlink" x="0px" y="0px"
	 viewBox="0 0 196 196" style="enable-background:new 0 0 196 196;" xml:space="preserve" fill="white">
<g>
	<g>
		<g>
			<path d="M98,0C43.962,0,0,43.962,0,98c0,54.038,43.962,98,98,98s98-43.962,98-98C196,43.962,152.038,0,98,0z M98,189
				c-50.177,0-91-40.823-91-91S47.823,7,98,7s91,40.823,91,91S148.177,189,98,189z"/>
			<path d="M98,17.5c-44.387,0-80.5,36.113-80.5,80.5c0,44.387,36.113,80.5,80.5,80.5s80.5-36.113,80.5-80.5
				C178.5,53.613,142.387,17.5,98,17.5z M98,171.5c-40.529,0-73.5-32.971-73.5-73.5S57.471,24.5,98,24.5s73.5,32.971,73.5,73.5
				S138.529,171.5,98,171.5z"/>
			<path d="M112.877,107.87l7.396-7.396c1.367-1.367,1.367-3.582,0-4.949l-19.798-19.798c-1.367-1.367-3.582-1.367-4.949,0
				l-7.396,7.395L61.007,56H73.5c1.933,0,3.5-1.567,3.5-3.5S75.433,49,73.5,49h-21c-1.933,0-3.5,1.567-3.5,3.5v21
				c0,1.933,1.567,3.5,3.5,3.5s3.5-1.567,3.5-3.5V60.891l27.181,27.181l-7.454,7.454c-1.367,1.367-1.367,3.582,0,4.949
				l19.798,19.798c0.684,0.684,1.579,1.025,2.475,1.025s1.791-0.342,2.475-1.025l7.454-7.454l33.465,33.465
				c0.684,0.684,1.579,1.025,2.475,1.025c0.895,0,1.791-0.342,2.475-1.025c1.367-1.367,1.367-3.582,0-4.949L112.877,107.87z
				 M98,112.849L83.151,98l4.979-4.979l14.849,14.849L98,112.849z M107.928,102.921L93.079,88.072L98,83.151L112.849,98
				L107.928,102.921z"/>
		</g>
	</g>
</g>
</svg>
